<mxfile host="Electron" agent="Mozilla/5.0 (Windows NT 10.0; Win64; x64) AppleWebKit/537.36 (KHTML, like Gecko) draw.io/24.7.17 Chrome/128.0.6613.36 Electron/32.0.1 Safari/537.36" version="24.7.17">
  <diagram name="Page-1" id="tB4uOXb1ONbJPKUJAVwe">
    <mxGraphModel dx="1596" dy="826" grid="1" gridSize="10" guides="1" tooltips="1" connect="1" arrows="1" fold="1" page="1" pageScale="1" pageWidth="850" pageHeight="1100" math="0" shadow="0">
      <root>
        <mxCell id="0" />
        <mxCell id="1" parent="0" />
        <mxCell id="E9D0PfEnYjzEaEjmk4KS-1" value="PreRequest" style="rounded=1;arcSize=10;whiteSpace=wrap;html=1;align=center;" vertex="1" parent="1">
          <mxGeometry x="375" y="350" width="100" height="40" as="geometry" />
        </mxCell>
        <mxCell id="E9D0PfEnYjzEaEjmk4KS-2" value="Title" style="ellipse;whiteSpace=wrap;html=1;align=center;" vertex="1" parent="1">
          <mxGeometry x="260" y="240" width="100" height="40" as="geometry" />
        </mxCell>
        <mxCell id="E9D0PfEnYjzEaEjmk4KS-3" value="Link" style="ellipse;whiteSpace=wrap;html=1;align=center;" vertex="1" parent="1">
          <mxGeometry x="375" y="240" width="100" height="40" as="geometry" />
        </mxCell>
        <mxCell id="E9D0PfEnYjzEaEjmk4KS-4" value="" style="endArrow=none;html=1;rounded=0;" edge="1" parent="1" source="E9D0PfEnYjzEaEjmk4KS-2" target="E9D0PfEnYjzEaEjmk4KS-1">
          <mxGeometry relative="1" as="geometry">
            <mxPoint x="440" y="450" as="sourcePoint" />
            <mxPoint x="600" y="450" as="targetPoint" />
          </mxGeometry>
        </mxCell>
        <mxCell id="E9D0PfEnYjzEaEjmk4KS-5" value="" style="endArrow=none;html=1;rounded=0;" edge="1" parent="1" source="E9D0PfEnYjzEaEjmk4KS-3" target="E9D0PfEnYjzEaEjmk4KS-1">
          <mxGeometry relative="1" as="geometry">
            <mxPoint x="339" y="288" as="sourcePoint" />
            <mxPoint x="414" y="360" as="targetPoint" />
          </mxGeometry>
        </mxCell>
        <mxCell id="E9D0PfEnYjzEaEjmk4KS-6" value="Course" style="ellipse;whiteSpace=wrap;html=1;align=center;" vertex="1" parent="1">
          <mxGeometry x="490" y="240" width="100" height="40" as="geometry" />
        </mxCell>
        <mxCell id="E9D0PfEnYjzEaEjmk4KS-7" value="" style="endArrow=none;html=1;rounded=0;" edge="1" parent="1" source="E9D0PfEnYjzEaEjmk4KS-6" target="E9D0PfEnYjzEaEjmk4KS-1">
          <mxGeometry relative="1" as="geometry">
            <mxPoint x="520" y="360" as="sourcePoint" />
            <mxPoint x="680" y="360" as="targetPoint" />
          </mxGeometry>
        </mxCell>
      </root>
    </mxGraphModel>
  </diagram>
</mxfile>
